<mxfile host="app.diagrams.net" modified="2020-11-04T16:47:20.653Z" agent="5.0 (Windows NT 10.0; Win64; x64) AppleWebKit/537.36 (KHTML, like Gecko) Chrome/86.0.4240.111 Safari/537.36" etag="HP_0hP2kb1G2nDjsbmIe" version="13.8.9-1" type="github">
  <diagram id="TumvB3jtfq2kJoedRNaW" name="Page-1">
    <mxGraphModel dx="2563" dy="964" grid="1" gridSize="10" guides="1" tooltips="1" connect="1" arrows="1" fold="1" page="1" pageScale="1" pageWidth="827" pageHeight="1169" math="0" shadow="0">
      <root>
        <mxCell id="0" />
        <mxCell id="1" parent="0" />
        <mxCell id="l0OJAWfN0QNwZ4EXdsEu-7" style="edgeStyle=orthogonalEdgeStyle;rounded=0;orthogonalLoop=1;jettySize=auto;html=1;exitX=1;exitY=0.5;exitDx=0;exitDy=0;entryX=0;entryY=0.5;entryDx=0;entryDy=0;fontSize=14;" edge="1" parent="1" source="l0OJAWfN0QNwZ4EXdsEu-1" target="l0OJAWfN0QNwZ4EXdsEu-4">
          <mxGeometry relative="1" as="geometry" />
        </mxCell>
        <mxCell id="l0OJAWfN0QNwZ4EXdsEu-11" style="edgeStyle=orthogonalEdgeStyle;rounded=0;orthogonalLoop=1;jettySize=auto;html=1;exitX=0.5;exitY=1;exitDx=0;exitDy=0;fontSize=14;" edge="1" parent="1" source="l0OJAWfN0QNwZ4EXdsEu-1" target="l0OJAWfN0QNwZ4EXdsEu-8">
          <mxGeometry relative="1" as="geometry" />
        </mxCell>
        <mxCell id="l0OJAWfN0QNwZ4EXdsEu-1" value="" style="rounded=0;whiteSpace=wrap;html=1;fillColor=#f5f5f5;strokeColor=#666666;fontColor=#333333;fontFamily=Lucida Caligraphy;fontSize=14;" vertex="1" parent="1">
          <mxGeometry x="-140" y="30" width="630" height="190" as="geometry" />
        </mxCell>
        <mxCell id="l0OJAWfN0QNwZ4EXdsEu-2" value="&lt;div style=&quot;font-size: 20px&quot;&gt;&lt;i&gt;&lt;b&gt;START&lt;/b&gt;&lt;/i&gt;&lt;/div&gt;&lt;div&gt;Estás en la calle con tu amigo, y de repente se oyen disparos. Se oyen muchos gritos ,&amp;nbsp;&lt;/div&gt;&lt;div&gt;y aparece un grupo de zombies veloces que van mordiendo a la gente.&lt;/div&gt;&lt;div&gt;&lt;br&gt;&lt;/div&gt;&lt;div&gt;¿Qué haces?&lt;/div&gt;&lt;div&gt;&lt;br&gt;&lt;/div&gt;&lt;div&gt;1.- Huyes corriendo hacia algún lugar seguro.&lt;/div&gt;&lt;div&gt;2.- Te paras a ayudar a las personas que están siendo mordidas.&lt;/div&gt;" style="text;html=1;resizable=0;autosize=1;align=center;verticalAlign=middle;points=[];fillColor=none;strokeColor=none;rounded=0;fontSize=14;" vertex="1" parent="1">
          <mxGeometry x="-105" y="60" width="560" height="140" as="geometry" />
        </mxCell>
        <mxCell id="l0OJAWfN0QNwZ4EXdsEu-4" value="" style="rounded=0;whiteSpace=wrap;html=1;fontSize=14;" vertex="1" parent="1">
          <mxGeometry x="820" y="30" width="500" height="230" as="geometry" />
        </mxCell>
        <mxCell id="l0OJAWfN0QNwZ4EXdsEu-6" value="&lt;b&gt;1.- HAS ESCOGIDO LA 1º OPCIÓN&lt;br&gt;&lt;br&gt;Te has escondido en un callejón estrecho por donde los zombies&amp;nbsp;&lt;br&gt;ni la gente no se ha percatado todavía .&amp;nbsp;&lt;br&gt;¿Qué decides hacer ahora?&lt;br&gt;&lt;br&gt;1.- Buscar víveres ,un arma o algo con lo que defenderte&lt;br&gt;&amp;nbsp;y un lugar donde quedarte.&lt;br&gt;&lt;br&gt;2.- Te arriesgas a salir y buscas la forma para llegar a tu casa&lt;br&gt;para buscar a tus seres queridos junto con tu amigo&lt;br&gt;&lt;br&gt;&lt;br&gt;&lt;/b&gt;" style="text;html=1;resizable=0;autosize=1;align=center;verticalAlign=middle;points=[];fillColor=none;strokeColor=none;rounded=0;fontSize=14;" vertex="1" parent="1">
          <mxGeometry x="845" y="30" width="450" height="230" as="geometry" />
        </mxCell>
        <mxCell id="l0OJAWfN0QNwZ4EXdsEu-8" value="" style="rounded=0;whiteSpace=wrap;html=1;fontSize=14;" vertex="1" parent="1">
          <mxGeometry x="-150" y="400" width="640" height="230" as="geometry" />
        </mxCell>
        <mxCell id="l0OJAWfN0QNwZ4EXdsEu-12" value="" style="rounded=0;whiteSpace=wrap;html=1;fontSize=14;" vertex="1" parent="1">
          <mxGeometry x="1654" y="40" width="666" height="260" as="geometry" />
        </mxCell>
        <mxCell id="l0OJAWfN0QNwZ4EXdsEu-13" value="Has trepado por unos tubos , y has roto la ventana de un apartamento cuyo propietario&lt;br&gt;no está. Decides esperar y ver que dicen en las noticias y en la radio sobre la&amp;nbsp;&lt;br&gt;situación" style="text;html=1;resizable=0;autosize=1;align=center;verticalAlign=middle;points=[];fillColor=none;strokeColor=none;rounded=0;fontSize=14;" vertex="1" parent="1">
          <mxGeometry x="1712" y="120" width="550" height="60" as="geometry" />
        </mxCell>
        <mxCell id="l0OJAWfN0QNwZ4EXdsEu-14" value="" style="rounded=0;whiteSpace=wrap;html=1;fontSize=14;" vertex="1" parent="1">
          <mxGeometry x="820" y="400" width="530" height="260" as="geometry" />
        </mxCell>
        <mxCell id="l0OJAWfN0QNwZ4EXdsEu-15" value="Al salir , te das cuenta que la situación ha emperoado , hay demasiados zombies&amp;nbsp;&lt;br&gt;y se percatan de vuestra presencia" style="text;html=1;resizable=0;autosize=1;align=center;verticalAlign=middle;points=[];fillColor=none;strokeColor=none;rounded=0;fontSize=14;" vertex="1" parent="1">
          <mxGeometry x="827" y="495" width="520" height="40" as="geometry" />
        </mxCell>
      </root>
    </mxGraphModel>
  </diagram>
</mxfile>
